HIERARCHY
ROOT Hips
{
	OFFSET -3.958830 18.904000 13.208200
	CHANNELS 6 Xposition Yposition Zposition Zrotation Yrotation Xrotation 
	JOINT LHipJoint
	{
		OFFSET 0.000000 0.000000 0.000000
		CHANNELS 3 Zrotation Yrotation Xrotation
		JOINT LeftUpLeg
		{
			OFFSET 1.800000 -1.400000 0.085000
			CHANNELS 3 Zrotation Yrotation Xrotation
			JOINT LeftLeg
			{
				OFFSET 2.215000 -6.000000 0.000000
				CHANNELS 3 Zrotation Yrotation Xrotation
				JOINT LeftFoot
				{
					OFFSET 2.500000 -6.900000 0.000000
					CHANNELS 3 Zrotation Yrotation Xrotation
					JOINT LeftToeBase
					{
						OFFSET 0.200000 -0.500000 1.950000
						CHANNELS 3 Zrotation Yrotation Xrotation
						End Site
						{
							OFFSET 0.000000 0.000000 0.000000
						}
					}
				}
			}
		}
	}
	JOINT RHipJoint
	{
		OFFSET 0.000000 0.000000 0.000000
		CHANNELS 3 Zrotation Yrotation Xrotation
		JOINT RightUpLeg
		{
			OFFSET -1.800000 -1.400000 0.085000
			CHANNELS 3 Zrotation Yrotation Xrotation
			JOINT RightLeg
			{
				OFFSET -2.215000 -6.000000 0.000000
				CHANNELS 3 Zrotation Yrotation Xrotation
				JOINT RightFoot
				{
					OFFSET -2.500000 -6.900000 0.000000
					CHANNELS 3 Zrotation Yrotation Xrotation
					JOINT RightToeBase
					{
						OFFSET -0.200000 -0.500000 1.950000
						CHANNELS 3 Zrotation Yrotation Xrotation
						End Site
						{
							OFFSET 0.000000 0.000000 0.000000
						}
					}
				}
			}
		}
	}
	JOINT LowerBack
	{
		OFFSET 0.000000 0.000000 0.000000
		CHANNELS 3 Zrotation Yrotation Xrotation
		JOINT Spine
		{
			OFFSET -0.087000 1.940000 -0.288900
			CHANNELS 3 Zrotation Yrotation Xrotation
			JOINT Spine1
			{
				OFFSET 0.000000 1.950000 0.060000
				CHANNELS 3 Zrotation Yrotation Xrotation
				JOINT Neck
				{
					OFFSET 0.000000 0.000000 0.000000
					CHANNELS 3 Zrotation Yrotation Xrotation
					JOINT Neck1
					{
						OFFSET 0.000000 1.600000 0.340000
						CHANNELS 3 Zrotation Yrotation Xrotation
						JOINT Head
						{
							OFFSET 0.000000 1.667000 -0.240000
							CHANNELS 3 Zrotation Yrotation Xrotation
							End Site
							{
								OFFSET 0.000000 0.000000 0.000000
							}
						}
					}
				}
				JOINT LeftShoulder
				{
					OFFSET 0.000000 0.000000 0.000000
					CHANNELS 3 Zrotation Yrotation Xrotation
					JOINT LeftArm
					{
						OFFSET 2.700000 1.550000 -0.730000
						CHANNELS 3 Zrotation Yrotation Xrotation
						JOINT LeftForeArm
						{
							OFFSET 5.450000 0.000000 0.000000
							CHANNELS 3 Zrotation Yrotation Xrotation
							JOINT LeftHand
							{
								OFFSET 3.450000 0.000000 0.000000
								CHANNELS 3 Zrotation Yrotation Xrotation
								JOINT LeftHandIndex1
								{
									OFFSET 0.750000 0.000000 0.000000
									CHANNELS 3 Zrotation Yrotation Xrotation
									End Site
									{
										OFFSET 0.000000 0.000000 0.000000
									}
								}
							}
						}
					}
				}
				JOINT RightShoulder
				{
					OFFSET 0.000000 0.000000 0.000000
					CHANNELS 3 Zrotation Yrotation Xrotation
					JOINT RightArm
					{
						OFFSET -2.700000 1.550000 -0.730000
						CHANNELS 3 Zrotation Yrotation Xrotation
						JOINT RightForeArm
						{
							OFFSET -5.450000 0.000000 0.000000
							CHANNELS 3 Zrotation Yrotation Xrotation
							JOINT RightHand
							{
								OFFSET -3.450000 0.000000 0.000000
								CHANNELS 3 Zrotation Yrotation Xrotation
								JOINT RightHandIndex1
								{
									OFFSET -0.750000 0.000000 0.000000
									CHANNELS 3 Zrotation Yrotation Xrotation
									End Site
									{
										OFFSET 0.000000 0.000000 0.000000
									}
								}
							}
						}
					}
				}
			}
		}
	}
}
MOTION
Frames: 13
Frame Time: 0.016667
0.586480 17.303230 -3.790070 -3.288294 -6.469295 -16.404036 -14.776647 13.101139 3.190754 2.097308 0.738667 6.047809 -4.894854 5.298596 5.980176 0.669319 3.785960 3.154158 0.540340 0.537510 0.650290 18.608883 -11.076653 3.399978 -2.750969 -2.838236 6.239857 5.443527 -4.876355 2.789872 -0.937799 -4.147645 2.762678 -0.050470 -0.522370 0.177170 -4.507768 -1.174523 -7.968209 21.543012 -6.564393 29.615321 -13.284953 0.197875 15.848994 4.711516 -5.327821 -19.212611 -17.406794 4.295133 52.676426 1.879600 -1.328480 -13.131270 -4.346821 -19.295499 10.098138 -13.451815 -0.366104 -10.655561 132.831734 -3.840208 -28.566625 -3.066523 3.421439 0.447760 -0.515470 0.669620 0.028620 -4.213887 24.461397 15.278512 23.879782 -7.219951 -19.691562 -119.761174 14.733757 -45.315408 2.969466 -2.138848 0.362420 -0.222140 -0.493420 0.098190 
0.575000 17.245160 -3.750330 -3.702286 -6.121433 -17.889965 -14.813550 13.226193 3.295178 3.042836 0.837417 8.240398 -5.009403 5.444002 5.333336 0.714374 4.050380 3.050986 0.640400 0.654850 0.707930 18.548195 -10.979886 3.414279 -2.695638 -3.097345 7.841826 5.613291 -5.084234 3.498054 -1.023103 -4.295233 2.665633 0.026660 -0.544380 0.217510 -4.369219 -1.542138 -8.036001 22.433898 -7.439756 31.219299 -14.299066 0.449402 13.389183 5.212779 -5.575923 -20.165626 -19.196258 5.646148 55.457317 1.158800 -1.401220 -13.901850 -7.060085 -22.310965 9.707139 -10.664993 -2.985491 -11.587787 132.492832 2.794318 -14.374711 -3.109867 3.572357 0.448440 -0.524560 0.714300 0.050510 -2.472559 28.305307 15.407433 22.088714 -6.428475 -21.378874 -121.179211 3.258412 -28.493015 3.065379 -2.389779 0.401540 -0.215760 -0.521780 0.111260 
0.552570 17.198530 -3.712490 -3.490725 -5.516569 -18.731081 -14.961892 13.556140 3.472292 3.412888 0.912277 9.423569 -5.519402 5.638496 4.930593 0.588336 4.386018 2.932129 0.723660 0.711560 0.801630 18.354941 -10.724266 3.425633 -3.118143 -3.074364 9.151994 6.244546 -5.213785 3.958883 -1.047579 -4.389315 2.584243 0.149620 -0.535410 0.184270 -3.895825 -2.491471 -8.222447 21.272441 -7.403909 33.286993 -13.981902 1.557196 7.978175 5.553603 -4.892443 -21.242224 -19.203819 6.480624 61.925039 -0.123610 -2.221970 -13.590570 -11.086536 -23.781976 8.078133 -6.400695 -6.286096 -10.217725 134.072512 8.343942 1.978421 -3.151840 3.633680 0.505940 -0.514470 0.693770 0.027790 0.909986 30.854209 15.456342 17.846665 -6.097371 -20.893049 -123.302831 -6.856063 -9.925925 3.137922 -2.535258 0.318530 -0.115080 -0.502350 0.050460 
0.553620 17.161170 -3.647150 -4.272075 -5.845638 -16.242378 -15.126188 14.090764 3.529019 4.140783 0.686577 6.791385 -5.960884 5.593506 5.340963 0.503630 4.304778 2.932224 0.832800 0.884790 0.812930 18.135947 -10.411682 3.435170 -2.096118 -2.607685 7.512343 7.173336 -5.040594 4.589383 -1.024647 -4.163556 2.640391 0.273280 -0.505750 0.204250 -3.346606 -3.792526 -8.339004 22.075137 -7.494534 32.286527 -14.824736 2.774892 -3.240407 5.822325 -4.545929 -22.177685 -19.197966 8.719443 70.391059 0.641660 -2.038030 -11.147440 -12.670671 -20.878006 5.884509 -8.041167 -9.641328 -6.794726 137.272227 11.030918 17.514442 -3.097437 3.801619 0.478370 -0.478580 0.724790 0.089350 2.317578 30.308862 15.165197 17.063711 -2.274186 -17.307931 -126.164071 -12.706749 7.075704 3.118397 -2.613431 0.344770 -0.066260 -0.533240 0.087490 
0.534580 17.132360 -3.610620 -4.224788 -5.186832 -14.893087 -15.209593 14.379264 3.529705 4.064429 0.585626 4.871893 -6.250461 5.680225 6.748153 0.492615 4.227007 2.947564 0.886650 0.983560 0.808020 18.014323 -10.334634 3.398699 -1.868104 -2.208370 6.107241 7.413116 -4.983977 5.774273 -0.976762 -4.054575 2.672464 0.337110 -0.477900 0.234190 -3.066759 -4.374009 -8.381543 21.155365 -7.118519 31.304788 -14.375511 3.031739 -8.418814 5.743400 -4.249457 -21.832171 -17.988237 8.836022 72.497127 0.654550 -1.502890 -8.938360 -10.841942 -19.150328 4.689595 -11.182322 -13.420676 -5.369536 140.050909 13.680063 28.961459 -3.129691 3.996175 0.398860 -0.426830 0.720470 0.136280 0.861344 29.409776 14.603725 18.898758 1.456144 -15.584439 -128.792191 -16.218162 16.985226 3.128132 -2.740781 0.384690 -0.084400 -0.570200 0.127160 
0.523560 17.119900 -3.612480 -4.655082 -5.799453 -16.315183 -15.149396 14.277882 3.473963 4.815644 0.638421 6.069412 -6.506277 5.970427 7.746158 0.572142 4.353107 2.896987 0.926440 1.047400 0.827950 18.075536 -10.436018 3.418445 -1.828787 -2.435847 7.250120 7.576547 -5.238171 6.541599 -1.044358 -4.204151 2.614627 0.350070 -0.503550 0.240730 -3.219978 -4.019295 -8.307375 21.798048 -7.744449 32.249475 -14.674735 2.943446 -6.193670 5.221705 -4.740035 -21.976271 -18.641882 8.965846 71.987561 1.816010 -1.584900 -10.603650 -10.247347 -19.957644 4.467600 -11.311971 -14.145539 -6.260108 141.814395 14.369733 30.270790 -3.088365 4.085117 0.391810 -0.456080 0.757280 0.150850 1.115365 30.350139 15.195934 19.544972 2.101252 -16.260609 -130.179812 -15.902207 13.958075 3.126911 -2.751904 0.425450 -0.092670 -0.603100 0.149050 
0.494140 17.113360 -3.684240 -4.559291 -5.380760 -21.383324 -14.977888 13.769971 3.366434 5.769986 0.944255 10.485551 -6.796830 6.604135 9.113039 0.700870 4.775434 2.770030 0.866230 0.973200 0.811390 18.285250 -10.758236 3.458756 -3.009789 -3.275678 11.527139 7.581454 -5.951848 7.079328 -1.189536 -4.756209 2.453982 0.281320 -0.530850 0.221810 -3.761833 -2.718172 -8.172513 21.037908 -8.436185 35.831701 -13.586769 1.684647 6.798938 4.702986 -4.721245 -21.692164 -18.072933 6.768417 64.973220 2.789370 -2.246230 -15.783640 -10.217096 -25.536404 6.623342 -5.126642 -11.600306 -10.602873 140.102357 14.902904 19.567016 -3.114160 3.967935 0.438750 -0.501930 0.766060 0.113340 1.762757 33.015288 15.888835 16.617135 -1.126977 -20.507037 -128.903538 -14.432305 1.459465 3.160568 -2.709263 0.412510 -0.091930 -0.579660 0.130200 
0.471070 17.116360 -3.705470 -4.302723 -5.557087 -22.463603 -14.846129 13.397926 3.211229 5.688607 1.016754 10.949724 -6.946788 6.882892 10.441034 0.739959 4.876337 2.775033 0.701630 0.751850 0.718340 18.460285 -11.067917 3.396097 -3.687535 -3.436588 11.689608 7.547469 -6.317392 7.938479 -1.151419 -4.929186 2.434419 0.132070 -0.479020 0.245250 -4.188624 -1.672938 -8.002979 20.130616 -7.497293 35.191723 -11.646914 0.318004 16.859619 4.109460 -4.986016 -19.410995 -16.411086 3.853431 54.895834 3.054790 -2.470810 -18.621990 -7.423472 -26.963487 8.557709 -4.306410 -8.062739 -13.537840 136.356229 12.128179 3.324857 -3.244015 3.818575 0.438960 -0.475320 0.696750 0.059500 0.173774 32.192004 15.562899 16.308663 -2.297699 -22.767654 -124.533859 -7.601902 -15.804358 3.121713 -2.573611 0.380690 -0.140230 -0.496010 0.115800 
0.461100 17.135970 -3.736890 -4.140129 -5.381026 -21.427637 -14.852531 13.337879 3.055786 5.245265 1.006765 8.806664 -6.822657 6.938543 11.898613 0.747646 4.749028 2.852144 0.598090 0.631210 0.642270 18.491705 -11.188163 3.250073 -3.701431 -3.092674 9.256082 7.405100 -6.369303 9.552465 -1.015661 -4.827370 2.507397 0.056190 -0.427440 0.261830 -4.232964 -1.382302 -7.830186 18.612135 -6.075864 33.218822 -9.565907 -0.394924 21.589988 3.795469 -4.242478 -16.739783 -12.786839 1.266242 47.307603 1.336030 -1.967890 -17.813670 -4.874752 -24.575928 9.078300 -5.981622 -6.655580 -13.868180 130.992708 4.783504 -13.921894 -3.301053 3.660167 0.357070 -0.411480 0.620350 0.057040 -1.791720 28.082878 14.269999 17.631387 -1.790958 -22.361338 -119.689782 2.943660 -31.237416 2.999160 -2.399333 0.374830 -0.200700 -0.474160 0.128380 
0.463260 17.173150 -3.810370 -4.154501 -5.170335 -20.957393 -14.982814 13.591199 2.933612 5.091328 0.822032 5.826748 -6.462329 7.141900 14.732632 0.627202 4.809140 2.864059 0.512280 0.474160 0.636440 18.365700 -11.123616 3.099955 -3.371414 -2.494756 6.597310 7.516010 -6.490304 12.107550 -0.848883 -4.692186 2.566494 0.024530 -0.371580 0.237540 -3.874768 -1.844449 -7.678655 16.113114 -5.031965 34.437167 -7.199069 -0.497008 23.331555 3.905354 -3.349070 -14.641920 -9.591387 -0.699961 41.240422 -1.474900 -1.267310 -17.234890 -2.174150 -20.043898 8.390537 -8.219173 -6.819356 -12.860176 125.943785 -5.160081 -30.561942 -3.341699 3.438619 0.338900 -0.345530 0.506450 0.015630 -4.873732 22.793954 12.589499 18.524674 -1.574873 -21.210200 -114.261889 14.157388 -43.008242 2.871371 -2.217197 0.278400 -0.199500 -0.426050 0.067810 
0.476390 17.218940 -3.909030 -4.263725 -4.580305 -20.523507 -15.187206 14.152140 2.912181 5.007724 0.501673 2.052341 -5.822558 7.372629 18.365941 0.582270 4.897821 2.833299 0.421020 0.348350 0.608850 18.125205 -10.928798 2.895993 -2.388911 -1.629795 2.801689 6.287830 -6.468118 16.572565 -0.684888 -4.408814 2.662061 -0.036000 -0.341510 0.229380 -3.247167 -3.031959 -7.609596 12.934557 -4.192595 37.899208 -4.358223 -0.353578 21.929271 4.119023 -2.775949 -13.820269 -8.106183 -1.591002 37.922130 -3.791290 -0.239940 -17.027240 -0.608474 -14.964162 7.617052 -10.542804 -5.524728 -11.157042 122.070606 -17.883705 -47.531820 -3.365681 3.253785 0.327510 -0.310160 0.449490 -0.022340 -7.289061 17.775407 11.283225 18.748742 -4.059237 -19.390114 -110.685183 26.786506 -54.713557 2.781105 -2.020202 0.232810 -0.212110 -0.381280 0.040290 
0.493020 17.296730 -4.026590 -4.183601 -4.201890 -20.394769 -15.333129 14.605497 2.945274 4.524497 0.178296 -1.126655 -4.933532 7.402964 21.212404 0.576299 4.899696 2.820623 0.386080 0.313450 0.617680 17.944736 -10.785257 2.699709 -1.490503 -0.452572 -2.010819 5.030539 -6.565067 22.608641 -0.595075 -4.267592 2.716382 -0.071160 -0.367060 0.213200 -2.788452 -3.995284 -7.560921 10.207246 -3.592397 42.486071 -2.203037 -0.155175 20.312079 4.315522 -2.237835 -13.222445 -7.004925 -2.225070 36.341216 -6.661300 1.152150 -20.207180 -0.459896 -11.047194 6.607423 -8.872929 -1.649816 -9.695863 120.195634 -33.094643 -66.038632 -3.338502 3.098791 0.331930 -0.318490 0.452420 -0.039400 -8.173261 13.929195 10.390973 17.029703 -8.079541 -17.394334 -109.860895 40.294486 -68.551132 2.709918 -1.717504 0.223730 -0.214710 -0.385170 0.022770 
0.515980 17.362230 -4.126550 -4.038400 -2.873135 -19.106369 -15.339060 14.793262 3.033016 3.134521 -0.371658 -4.494931 -3.884141 7.013571 22.697380 0.614005 4.542910 2.890633 0.359630 0.282490 0.668430 17.884749 -10.808803 2.631050 -1.124835 0.898686 -8.873916 3.782880 -6.708793 28.980562 -0.608661 -4.166784 2.711737 -0.184060 -0.495170 0.188650 -2.716016 -4.272999 -7.626494 8.873951 -3.933411 43.960048 -1.090119 -0.797867 18.872926 4.074552 -1.508821 -15.048337 -7.530593 -1.718204 42.932629 -5.896040 1.507400 -23.828940 -0.156738 -12.217453 8.370091 -5.261269 6.574839 -8.654809 122.664964 -49.416557 -90.286490 -3.185501 3.012543 0.427200 -0.454300 0.569000 -0.086240 -7.884425 14.435344 11.327673 13.671575 -14.316538 -15.694965 -109.348357 52.943581 -80.624116 2.763888 -1.114674 0.276970 -0.242220 -0.412640 0.013830 
